<?xml version="1.0" encoding="UTF-8" standalone="no"?>
<!-- Created with Inkscape (http://www.inkscape.org/) -->

<svg
   xmlns:dc="http://purl.org/dc/elements/1.1/"
   xmlns:cc="http://creativecommons.org/ns#"
   xmlns:rdf="http://www.w3.org/1999/02/22-rdf-syntax-ns#"
   xmlns:svg="http://www.w3.org/2000/svg"
   xmlns="http://www.w3.org/2000/svg"
   xmlns:xlink="http://www.w3.org/1999/xlink"
   xmlns:sodipodi="http://sodipodi.sourceforge.net/DTD/sodipodi-0.dtd"
   xmlns:inkscape="http://www.inkscape.org/namespaces/inkscape"
   width="128"
   height="128"
   id="svg2"
   version="1.1"
   inkscape:version="0.48.4 r9939"
   sodipodi:docname="lolpig.svg">
  <defs
     id="defs4">
    <linearGradient
       id="linearGradient3862">
      <stop
         style="stop-color:#fedfc2;stop-opacity:1;"
         offset="0"
         id="stop3864" />
      <stop
         style="stop-color:#ffd4ad;stop-opacity:1;"
         offset="1"
         id="stop3866" />
    </linearGradient>
    <linearGradient
       id="linearGradient3851">
      <stop
         style="stop-color:#fedfc2;stop-opacity:1;"
         offset="0"
         id="stop3853" />
      <stop
         style="stop-color:#f0b986;stop-opacity:1;"
         offset="1"
         id="stop3855" />
    </linearGradient>
    <linearGradient
       inkscape:collect="always"
       xlink:href="#linearGradient3851"
       id="linearGradient3857"
       x1="9.49075"
       y1="62.640625"
       x2="114.7905"
       y2="62.640625"
       gradientUnits="userSpaceOnUse" />
    <radialGradient
       inkscape:collect="always"
       xlink:href="#linearGradient3862"
       id="radialGradient3868"
       cx="70"
       cy="84.428574"
       fx="70"
       fy="84.428574"
       r="19.799428"
       gradientTransform="matrix(1,0,0,0.9458859,0,4.5687765)"
       gradientUnits="userSpaceOnUse" />
  </defs>
  <sodipodi:namedview
     id="base"
     pagecolor="#ffffff"
     bordercolor="#666666"
     borderopacity="1.0"
     inkscape:pageopacity="0"
     inkscape:pageshadow="2"
     inkscape:zoom="3.959798"
     inkscape:cx="30.568484"
     inkscape:cy="58.574417"
     inkscape:document-units="px"
     inkscape:current-layer="layer1"
     showgrid="false"
     inkscape:window-width="1440"
     inkscape:window-height="852"
     inkscape:window-x="0"
     inkscape:window-y="22"
     inkscape:window-maximized="1" />
  <metadata
     id="metadata7">
    <rdf:RDF>
      <cc:Work
         rdf:about="">
        <dc:format>image/svg+xml</dc:format>
        <dc:type
           rdf:resource="http://purl.org/dc/dcmitype/StillImage" />
        <dc:title></dc:title>
      </cc:Work>
    </rdf:RDF>
  </metadata>
  <g
     inkscape:label="Layer 1"
     inkscape:groupmode="layer"
     id="layer1"
     transform="translate(0,-924.36218)">
    <path
       style="fill:url(#linearGradient3857);fill-opacity:1;stroke:#5e3b11;stroke-width:2.45599999999999996;stroke-linecap:square;stroke-linejoin:round;stroke-miterlimit:4;stroke-opacity:1;stroke-dasharray:none;stroke-dashoffset:0"
       d="M 25.71875 26.21875 C 17.434479 26.21875 10.71875 32.374835 10.71875 39.96875 C 10.71875 44.149372 12.756815 47.884409 15.96875 50.40625 C 12.829153 54.823547 11.0625 59.757803 11.0625 64.96875 C 11.0625 83.805605 34.007907 99.0625 62.3125 99.0625 C 90.617093 99.0625 113.5625 83.805605 113.5625 64.96875 C 113.5625 59.41884 111.56511 54.193869 108.03125 49.5625 C 110.56727 47.099995 112.15625 43.809985 112.15625 40.15625 C 112.15625 32.562335 105.44052 26.40625 97.15625 26.40625 C 91.295183 26.40625 86.218017 29.476824 83.75 33.96875 C 77.228644 31.967751 69.964803 30.84375 62.3125 30.84375 C 54.087253 30.84375 46.326046 32.145651 39.4375 34.4375 C 37.112866 29.602754 31.852712 26.21875 25.71875 26.21875 z "
       transform="translate(0,924.36218)"
       id="path2985" />
    <path
       style="fill:#ffffff;fill-opacity:1;stroke:#5e3b11;stroke-width:2.45600009;stroke-linecap:square;stroke-linejoin:round;stroke-miterlimit:4;stroke-opacity:1;stroke-dasharray:none;stroke-dashoffset:0"
       d="m 41.010153,1002.1709 c 15.768745,4.4665 31.123485,4.2869 46.428571,0.3572 15.305086,-3.92977 -2.148332,17.366 -23.928571,16.4285 -21.780239,-0.9375 -38.268746,-21.25217 -22.5,-16.7857 z"
       id="path3803"
       inkscape:connector-curvature="0"
       sodipodi:nodetypes="zzzz" />
    <g
       id="g3816">
      <path
         transform="translate(8.5714286,926.14789)"
         d="m 38.571428,52.285713 a 6.6071429,6.7857141 0 1 1 -13.214286,0 6.6071429,6.7857141 0 1 1 13.214286,0 z"
         sodipodi:ry="6.7857141"
         sodipodi:rx="6.6071429"
         sodipodi:cy="52.285713"
         sodipodi:cx="31.964285"
         id="path3799"
         style="fill:#ffffff;fill-opacity:1;stroke:#5e3b11;stroke-width:2.45600009;stroke-linecap:square;stroke-linejoin:round;stroke-miterlimit:4;stroke-opacity:1;stroke-dasharray:none;stroke-dashoffset:0"
         sodipodi:type="arc" />
      <path
         transform="translate(0.35714286,922.21933)"
         d="m 41.428572,56.214287 a 1.0714285,1.0714285 0 1 1 -2.142857,0 1.0714285,1.0714285 0 1 1 2.142857,0 z"
         sodipodi:ry="1.0714285"
         sodipodi:rx="1.0714285"
         sodipodi:cy="56.214287"
         sodipodi:cx="40.357143"
         id="path3814"
         style="fill:#ffffff;fill-opacity:1;stroke:#5e3b11;stroke-width:2.45600009;stroke-linecap:square;stroke-linejoin:round;stroke-miterlimit:4;stroke-opacity:1;stroke-dasharray:none;stroke-dashoffset:0"
         sodipodi:type="arc" />
    </g>
    <g
       id="g3833"
       transform="translate(43.780638,-3.8926768)">
      <path
         sodipodi:type="arc"
         style="fill:#ffffff;fill-opacity:1;stroke:#5e3b11;stroke-width:2.45600009;stroke-linecap:square;stroke-linejoin:round;stroke-miterlimit:4;stroke-opacity:1;stroke-dasharray:none;stroke-dashoffset:0"
         id="path3835"
         sodipodi:cx="31.964285"
         sodipodi:cy="52.285713"
         sodipodi:rx="6.6071429"
         sodipodi:ry="6.7857141"
         d="m 38.571428,52.285713 c 0,3.747647 -2.958119,6.785714 -6.607143,6.785714 -3.649024,0 -6.607143,-3.038067 -6.607143,-6.785714 0,-3.747646 2.958119,-6.785714 6.607143,-6.785714 3.649024,0 6.607143,3.038068 6.607143,6.785714 z"
         transform="translate(8.5714286,926.14789)" />
      <path
         sodipodi:type="arc"
         style="fill:#ffffff;fill-opacity:1;stroke:#5e3b11;stroke-width:2.45600009;stroke-linecap:square;stroke-linejoin:round;stroke-miterlimit:4;stroke-opacity:1;stroke-dasharray:none;stroke-dashoffset:0"
         id="path3837"
         sodipodi:cx="40.357143"
         sodipodi:cy="56.214287"
         sodipodi:rx="1.0714285"
         sodipodi:ry="1.0714285"
         d="m 41.428572,56.214287 c 0,0.591733 -0.479695,1.071428 -1.071429,1.071428 -0.591733,0 -1.071428,-0.479695 -1.071428,-1.071428 0,-0.591734 0.479695,-1.071429 1.071428,-1.071429 0.591734,0 1.071429,0.479695 1.071429,1.071429 z"
         transform="translate(0.35714286,922.21933)" />
    </g>
    <path
       sodipodi:type="arc"
       style="fill:url(#radialGradient3868);fill-opacity:1;stroke:#5e3b11;stroke-width:2.45600008999999986;stroke-linecap:square;stroke-linejoin:round;stroke-miterlimit:4;stroke-opacity:1;stroke-dasharray:none;stroke-dashoffset:0"
       id="path3796"
       sodipodi:cx="70"
       sodipodi:cy="84.428574"
       sodipodi:rx="18.571428"
       sodipodi:ry="17.5"
       d="m 88.571428,84.428574 a 18.571428,17.5 0 1 1 -37.142856,0 18.571428,17.5 0 1 1 37.142856,0 z"
       transform="matrix(1.0039128,0,0,0.88170336,-8.1310376,917.56409)" />
    <text
       xml:space="preserve"
       style="font-size:31.02268982px;font-style:normal;font-variant:normal;font-weight:bold;font-stretch:normal;line-height:125%;letter-spacing:0px;word-spacing:0px;fill:#5e3b11;fill-opacity:1;stroke:none;font-family:TlwgMono;-inkscape-font-specification:TlwgMono Bold"
       x="51.833317"
       y="1035.2025"
       id="text3839"
       sodipodi:linespacing="125%"
       transform="scale(1.0338679,0.96724155)"><tspan
         sodipodi:role="line"
         id="tspan3841"
         x="51.833317"
         y="1035.2025">P</tspan></text>
  </g>
</svg>
